<svg width="40" height="40" viewBox="0 0 40 40" fill="none" xmlns="http://www.w3.org/2000/svg">
<path opacity="0.4" d="M20.0017 40.0034C31.0483 40.0034 40.0034 31.0483 40.0034 20.0017C40.0034 8.95507 31.0483 0 20.0017 0C8.95507 0 0 8.95507 0 20.0017C0 31.0483 8.95507 40.0034 20.0017 40.0034Z" fill="white"/>
<path d="M13.0474 25.3926L13.048 25.3932L13.5447 25.8865L13.5453 25.8871L19.8759 32.2177C20.6936 33.0354 21.7828 33.459 22.859 33.459C23.686 33.459 24.5086 33.2086 25.2012 32.6946L25.2014 32.6945C26.1477 31.9911 26.7433 30.9171 26.8306 29.7442C26.9214 28.5679 26.493 27.4167 25.6649 26.5887L25.6649 26.5886L19.4152 20.3422L25.6683 14.0891C26.4968 13.2607 26.9212 12.1096 26.8341 10.9343L26.8341 10.9342C26.7469 9.76107 26.1513 8.68682 25.2048 7.98327L25.204 7.98271C23.6073 6.80522 21.3207 7.01872 19.8759 8.46351L9.76517 18.5742L9.76434 18.575L8.67535 19.6538L8.67535 19.6538L8.67451 19.6547C8.49717 19.832 8.39014 20.0752 8.39014 20.3321H8.39007L8.3902 20.3377L8.39701 20.6408L8.39926 20.741L8.47011 20.8119L13.0474 25.3926ZM14.3648 24.0753L14.3641 24.0746L13.929 23.6428L13.9282 23.642L10.6283 20.339L21.1864 9.78088C21.996 8.97126 23.2478 8.85701 24.0893 9.48133L24.0894 9.4814C24.6102 9.86738 24.9209 10.4311 24.9698 11.0739L24.9698 11.0741C25.0188 11.7102 24.7894 12.3298 24.3442 12.7751L17.4612 19.6581C17.2839 19.8354 17.1769 20.0786 17.1769 20.3355H17.1768L17.1769 20.3411L17.1837 20.6442L17.186 20.7445L17.2569 20.8154L24.3476 27.906C24.7921 28.3506 25.019 28.97 24.9732 29.6076C24.9241 30.2503 24.6135 30.8139 24.0928 31.1998C23.2477 31.8244 21.9992 31.7097 21.1898 30.9003L14.3648 24.0753Z" fill="white" stroke="white" stroke-width="0.5"/>
</svg>
