<svg id="Layer_1" data-name="Layer 1" xmlns="http://www.w3.org/2000/svg" viewBox="0 0 159.48 159.48"><defs><style>.cls-1,.cls-2{fill:#fff;}.cls-1{opacity:0.5;}</style></defs><circle class="cls-1" cx="79.74" cy="79.74" r="79.74"/><path class="cls-2" d="M130.89,31.91a6.18,6.18,0,0,0-4.75-2.22H36.76A6.18,6.18,0,0,0,30.67,37L49.08,139.14a6.21,6.21,0,0,0,6.13,5.09h52.52a6.18,6.18,0,0,0,6.08-5.09L132.23,37A6.14,6.14,0,0,0,130.89,31.91Zm-6.71,8.27-16.51,94.58a2.74,2.74,0,0,1-2.69,2.33H57.88a2.73,2.73,0,0,1-2.65-2.33L38.71,40.18a2.9,2.9,0,0,1,.64-2.39,2.61,2.61,0,0,1,2-1h80.16a2.61,2.61,0,0,1,2,1A2.9,2.9,0,0,1,124.18,40.18Z" transform="translate(-1.71 -1.25)"/><path class="cls-2" d="M103.81,76.3A11.08,11.08,0,0,0,103.06,60a11.33,11.33,0,0,0-15.13.92L82.78,66a1.94,1.94,0,0,1-2.67,0l-5.37-5.38a11.13,11.13,0,0,0-8.33-3.23,10.92,10.92,0,0,0-8,4,11.3,11.3,0,0,0,.91,15.12l5.15,5.15a1.9,1.9,0,0,1,0,2.67l-5.38,5.38a11.08,11.08,0,0,0-3.22,8.32,11,11,0,0,0,4,8A11.31,11.31,0,0,0,75,105.15L80.11,100a1.88,1.88,0,0,1,2.67,0l5.15,5.15a11.62,11.62,0,0,0,8.18,3.39,10.81,10.81,0,0,0,7-2.48,11,11,0,0,0,4-8,11.08,11.08,0,0,0-3.22-8.32l-5.38-5.38a1.9,1.9,0,0,1,0-2.67ZM71.86,86.47a4.86,4.86,0,0,0,0-6.91l-8-8a4.34,4.34,0,0,1,.41-6.49,4.52,4.52,0,0,1,5.89.54L78,73.43a4.9,4.9,0,0,0,6.92,0l8-8a4.34,4.34,0,0,1,3.33-1.26,4.27,4.27,0,0,1,3.16,1.67,4.53,4.53,0,0,1-.53,5.89L91,79.56a4.89,4.89,0,0,0,0,6.91l8,8a4.34,4.34,0,0,1-.41,6.49,4.52,4.52,0,0,1-5.89-.54L84.91,92.6a4.9,4.9,0,0,0-6.92,0l-7.84,7.84a4.52,4.52,0,0,1-5.89.54,4.34,4.34,0,0,1-.41-6.49Z" transform="translate(-1.71 -1.25)"/></svg>