<svg width="50" height="51" viewBox="0 0 50 51" fill="none" xmlns="http://www.w3.org/2000/svg">
<circle cx="25" cy="25.4514" r="25" fill="white" fill-opacity="0.4"/>
<path d="M13.0982 12.0897C13.0454 11.5044 13.5064 11 14.0941 11H36.9059C37.4936 11 37.9546 11.5044 37.9018 12.0897L35.3793 40.0897C35.3329 40.6052 34.9009 41 34.3833 41H16.6167C16.0991 41 15.6671 40.6052 15.6207 40.0897L13.0982 12.0897Z" stroke="white" stroke-width="3"/>
<path fill-rule="evenodd" clip-rule="evenodd"  d="M27.9749 30.0962C28.5607 30.682 29.5104 30.682 30.0962 30.0962C30.682 29.5104 30.682 28.5607 30.0962 27.9749L27.6213 25.5L30.0962 23.0251C30.682 22.4393 30.682 21.4896 30.0962 20.9038C29.5104 20.318 28.5607 20.318 27.9749 20.9038L25.5 23.3787L23.0251 20.9038C22.4393 20.318 21.4896 20.318 20.9038 20.9038C20.318 21.4896 20.318 22.4393 20.9038 23.0251L23.3787 25.5L20.9038 27.9749C20.318 28.5607 20.318 29.5104 20.9038 30.0962C21.4896 30.682 22.4393 30.682 23.0251 30.0962L25.5 27.6213L27.9749 30.0962Z" fill="white"/>
</svg>
