<svg xmlns="http://www.w3.org/2000/svg" viewBox="0 0 976.35 976.35"><defs><style>.cls-1{fill:#fff;opacity:0.5;}.cls-2{fill:#e4edeb;}.cls-3{fill:#f2e861;}.cls-4{fill:#eebe82;}.cls-5{fill:#fef865;}.cls-6{fill:#fefa8c;}.cls-7{fill:#4c6063;}.cls-8{fill:#fefeb6;}.cls-9{fill:#e0dea0;}.cls-10{fill:#9b932f;}.cls-11{fill:#43bfb3;}.cls-12{fill:#4ad3c9;}.cls-13{fill:#778e43;}.cls-14{fill:#757729;}.cls-15{fill:none;stroke:#000;stroke-linecap:round;stroke-miterlimit:10;stroke-width:2.04px;}.cls-16{fill:#ce3c3c;}.cls-17{fill:#00ca17;}.cls-18{fill:#684b3b;}.cls-19{fill:#267164;}</style></defs><g id="Слой_2" data-name="Слой 2"><circle class="cls-1" cx="488.17" cy="488.17" r="488.17"/><circle class="cls-2" cx="488.17" cy="488.17" r="451.55"/><path class="cls-3" d="M64.88,452.64S297,311.05,310.09,303.38s45.77-21.75,70.29,0S692.61,534.78,707.32,546s-32.69,148.37-32.69,148.37-155.06-6.61-163.35-8.11" transform="translate(-9.05 -5.65)"/><path class="cls-4" d="M875.44,496.25c-25.5,6.65-97.49-30.65-159-72.65s-66-34.5-82.49-28.5-127.5,138-154.5,165-60,73.5-151.49,10.5C259.81,523.67,116.76,480.07,48.2,460.88q-2.1,20-2.45,40.45c4,245.92,204.6,444,451.48,444s447.45-198.11,451.47-444q-.29-17.91-2-35.46C922,479,890.31,492.37,875.44,496.25Z" transform="translate(-9.05 -5.65)"/><path class="cls-5" d="M948.77,493.83q0-21.74-2-42.94C922,464,890.31,477.37,875.44,481.25c-25.5,6.65-97.49-30.65-159-72.65s-66-34.5-82.49-28.5-127.5,138-154.5,165-60,73.5-151.49,10.5C259.81,508.67,116.76,465.07,48.2,445.88a457.53,457.53,0,0,0-2.52,47.95c0,249.38,202.16,451.54,451.55,451.54S948.77,743.21,948.77,493.83Z" transform="translate(-9.05 -5.65)"/><path class="cls-6" d="M544.51,718.51c-73.38-36-100.63-12-152.63-20s-66-16-144-74C193.19,583.84,101.14,568.74,51,563.34c33.44,216.38,220.49,382,446.23,382A449.49,449.49,0,0,0,766.91,856C704.43,809.93,596.6,744.06,544.51,718.51Z" transform="translate(-9.05 -5.65)"/><path class="cls-7" d="M116.88,757.51" transform="translate(-9.05 -5.65)"/><path class="cls-8" d="M708.75,627.34c-69,72-72,87-126,99s-150,8.31-189,31.16-50.65,13.15-128.84,0c-60.2-10.13-94.56,1.77-123.26,14.62C224.28,877.6,352.84,945.37,497.23,945.37c237.41,0,432-183.22,450.16-416C894.72,539.74,763.3,570.42,708.75,627.34Z" transform="translate(-9.05 -5.65)"/><path class="cls-9" d="M583.73,739.35c-54,12-150,8.31-189,31.16s-50.65,13.15-128.84,0c-55.37-9.32-88.89,0-116.23,11.56,82.82,99.77,207.78,163.3,347.58,163.3,232.82,0,424.47-176.21,448.9-402.53-54.07,10.77-182.59,41.37-236.38,97.5C640.74,712.35,637.74,727.35,583.73,739.35Z" transform="translate(-9.05 -5.65)"/><path class="cls-10" d="M777.05,745c-61.68,21.85-60.63,36.32-105.58,44.58s-161,38.23-200.7,39.27S393.41,839.19,373.55,863c-13.71,16.41-44.86,29.37-60.42,43.31q18.81,8.41,38.52,15.12a477.42,477.42,0,0,0,437-82.61,454.43,454.43,0,0,0,72.93-78.15C839.53,746.06,809,733.69,777.05,745Z" transform="translate(-9.05 -5.65)"/><path class="cls-11" d="M769.88,754.36c-59,21.15-58,35.15-101,43.15s-154,37-192,38-74,10-93,33c-13.43,16.25-44.34,29-58.84,42.87a450.29,450.29,0,0,0,172.19,34c144.75,0,273.59-68.11,356.23-174C832.22,756.47,801.79,742.92,769.88,754.36Z" transform="translate(-9.05 -5.65)"/><path class="cls-12" d="M497.23,945.37c140.06,0,265.22-63.77,348-163.86-18.49-8.73-40.56-13.34-63.39-5.15-59,21.15-58,35.15-101,43.15s-154,37-192,38-74,10-93,33c-9.61,11.63-28.16,21.47-43.25,31.2A450.84,450.84,0,0,0,497.23,945.37Z" transform="translate(-9.05 -5.65)"/><path class="cls-13" d="M223.62,853.51a460.68,460.68,0,0,0,85.86,51.31c7.35-9.35,19.08-21.24,26.4-22.87s18.16-15.8,22.05-21.13a6.16,6.16,0,0,0,1.43-2.15v-.16h0c2-5-6.54-11.06-6.73-10.89s-46.75-13.11-18.75-19.11,94,4,18.75-25c-56.13-21.63-145.9-10.77-187.91-4,18,19.59,37.72,37,58.91,54Z" transform="translate(-9.05 -5.65)"/><path class="cls-13" d="M458.38,817.51s16-3,26.5,0,175-36,177-36.5,37-4.5,39.5-12.5,80-30.34-10-18.42-140.75,28.73-146.87,32.07-28.13,2.35-36.63,3.35-36.5,9.5-41,14.5S432.88,820.51,458.38,817.51Z" transform="translate(-9.05 -5.65)"/><path class="cls-13" d="M854.85,625.87c-1.72-1.51-7-6-10.34-6.36,0,0,6.9,5,8.21,8.9-.28.35-.57.69-.86,1-1.86-1.21-5.83-3.62-8.35-3.81,0,0,5.67,3.12,7.3,5-21.85,24.9-62,43.45-64.43,57.85a36.19,36.19,0,0,1-2,7c-1.93-2.18-5.45-5.83-7.55-5.89,0,0,5.32,5.07,6.51,8.39-.11.27-.23.54-.35.81-1.15-.88-3.65-2.74-4.66-2.86a25.77,25.77,0,0,1,4.13,4c-5.43,11.59-13.43,22.49-7,25.5,7.91,3.72-17.51,18.26,15.49,9h0a47.75,47.75,0,0,1,16.62-.57c1.8.45,3.83,1,6,1.55a10.23,10.23,0,0,0,2.08.56c15.44,4.17,38,11.23,49.62,19.49a449.37,449.37,0,0,0,72.58-162.44C912.38,598.13,870.5,608.73,854.85,625.87Z" transform="translate(-9.05 -5.65)"/><path class="cls-14" d="M865.88,671c-7.5,14-24.5,19.5-27.5,20.5,0,0-4.58-10.17-10.41-15.5,0,0,8.5,13.75,5.91,16.91,0,0-4.25-8.16-6.91-9.33,0,0,4.75,9,4.16,10,0,0-7.5,1.83-8.58,5.17,0,0-9.33-6.5-11.92-6.75,0,0,8,6.58,8.17,8.33,0,0-5.67-2.83-7.17-2.83,0,0,5.17,3.33,5.09,4.16,0,0-5.59,3.84-6.09,6s9.25,2.88,12.75,3,38.5-5.87,45.63-4c5.64,1.49,16.85,4.78,22.2,7.94A449.4,449.4,0,0,0,919,655.43C904.47,656.52,871.69,660.17,865.88,671Z" transform="translate(-9.05 -5.65)"/><path class="cls-15" d="M279.8,519.88" transform="translate(-9.05 -5.65)"/><path class="cls-15" d="M312.35,614.45" transform="translate(-9.05 -5.65)"/><path class="cls-15" d="M218.42,731.72" transform="translate(-9.05 -5.65)"/><path class="cls-15" d="M221.05,723.45" transform="translate(-9.05 -5.65)"/><path class="cls-14" d="M264.88,868.38c2.25-1.5,1.75-7.5,1.75-7.5-.12-1.12,2.25-2.5,2.25-2.5-1-.25-4,1.13-4,1.13,0-1,4.25-3.88,4.25-3.88-1.25-.25-4.91,1.71-4.91,1.71-2.5-3.83-7.5-5.67-7.5-5.67,4.16.84,64.5,6.67,86.33,7.06s5.83-9.22,5.83-9.22l-8.5-2.92c-2.83-.17-30.83-14.58-30.83-14.58-3.5-2.17-18.17-6.84-18.17-6.84,0-1.5,4.49-6.24,4.49-6.24-3.5.26-7.35,5.23-7.35,5.23.17-1.5,6-13.84,6-13.84-6.17,3.67-10.4,13.14-10.4,13.14-17-15.34-83.57-12.47-106.76-11a453.88,453.88,0,0,0,69.21,56.94C254.09,869.67,263.48,869.32,264.88,868.38Z" transform="translate(-9.05 -5.65)"/><circle class="cls-16" cx="651.83" cy="187.85" r="97"/><path class="cls-17" d="M281.65,441.24a2.52,2.52,0,0,1-.55,1.53c-2.82,1.69-6.52,8.12-7.14,9.65-1.63.72-6.51,4.88-7.79,5.58l5.93,9.24c9.38-8.78,11.95-3.57,11.95-3.57,1.12,2.32,6.82,11.94,6.82,11.94.84,1.39,8.08-3.22,8.08-3.22,1.42-.78.68-9,.68-9-.1-11.78-6.53-17.15-8.31-18.81s.3-5.78,3.54-2.56,6,9.88,6,9.88l14.87,71-4.2,48.22c.15,1.66,8-16.65,8-16.65,8.36-13.76,8.9,2.66,8.9,2.66.26,1.52-1,31.53-1,31.53.33,1.5,12.21-21.47,12.21-21.47,2.17-4.45,2.22.52,2.22.52.16,1.14,3.16,36.54,3.16,36.54.18,1.48,15.58-64.11,15.58-64.11,1.09-1.87-38.08-88.56-38.62-90.07-.44-1.2-1.14-4.28-1.37-5.27,31.48,6.69,35.06,14.92,53.15,21s24.75,34,24.75,34c.76,2.06-2.45,28-2.45,28,0,.82,7.13-19.28,12.09-33.48s8.45-2.54,8.45-2.54c.35.58,3.34,36.1,3.34,36.1-.07.7,13.09-16.9,15.25-20.27s1.89-.43,1.89-.43c-.41.92,8.42,30.48,8.42,30.48.54,1.47,12.11-41.37,13.52-50.32s-7.11-17.73-8.66-19.21-17.08-12.55-19.64-13.91S411,443.67,408,442.32c-2.59-1.17-27.19-12.45-30.6-14l-48.61-6c-6.77-1.26-2.71-5-.28-5l14.8.08c3.3-10.73,18.15-9.51,18.15-9.51,17.27.8,23,5.56,23,5.56,2.8,2.24,4.58,15.46,4.58,15.46.16.95,4.51-17.68,4.51-17.68,1.47-5.07,3.4-4.93,3.4-4.93,6.25.21,4.94,23.06,4.94,23.06C402,430.87,413,409.61,413,409.61c1.18-2.17,1.94-3.4,1.94-3.4,1.36-1.11,1.12,28.61,1.12,28.61.35,1.41,11.44-18.15,11.44-18.15a24.53,24.53,0,0,0,2.9-12.6c-.28-1.91-5.42-9.79-5.42-9.79-1-2.15-6.76-32.67-6.76-32.67-1.66-15.08-20.54-3.75-20.54-3.75-1.62.67-35.09,21.64-35.09,21.64-1.25.75-47.39,29.84-47.39,29.84-1.84.66,7.93-25.35,7.93-25.35,1.47-2.42,13.81,3.88,16.39,5l1.66-11c.18.37,6.82,4.56,6.82,4.56,2.34.78,5.78-11.69,5.78-11.69.62-1.45,7,3.1,7,3.1.44.64,4.64-16.07,1.14-37.11S344.28,323,344.28,323c-16.17,9.06-32.24,32-34,34.82S288.66,403,288.66,403c-.2-.46-8.2-20-8.9-21.3-.39-.77-16.48-29.61-17.62-31.76s-16.09-24.59-19.65-30.49-6.26-6-6.26-6c-7.59-2.29-23.81,14.05-23.81,14.05-4.16,4.47-24,26.34-24,26.34-4,4.47-1,4.07-1,4.07,3.17,0,22.24-10.88,22.24-10.88,1.89-1.5,1,.05,1,.05-.52.9-.9,19.76-.9,19.76.2,1.54,23.2-.87,23.2-.87,1.36-.13-4.57,11.48-4.57,11.48-1.2,2,.41,2.49.41,2.49,17.16,3.13,29.41,10.32,30.65,11.26s4.08,2.25,1.9,4.45-6.81.3-10.23.19-36.44-16.06-38.12-16.37-45.78-21.92-45.78-21.92c-5-3.31-4.65-2.41-4.65-2.41-1.44-.19-37.2,23.27-37.2,23.27-1.78,1.52-8.78,40.09-8.78,40.09-1.2,5.16-.28,3.74-.28,3.74.67-.88,16.58-22.43,16.58-22.43,2.15-2.95,1.8-.53,1.8-.53-.08.69-7.23,19.63-7.23,19.63-1,2.59,0,2.87,0,2.87,1.54.05,27.16-15.49,27.16-15.49,1.71-1.1,1.23.17,1.23.17-.42.6-3.11,19.9-3.11,19.9-.11.67,23.15-19.54,23.15-19.54,1.2-1,1.23-.12,1.23-.12-.09.67,3.54,11.44,3.54,11.44.4.75,16.17-8.8,16.17-8.8,1.92-1.06,1.79-5.84,1.79-5.84-.1-.81.15-1.07.15-1.07,3.06-2.63,51,18.44,51,18.44,1.47.54.57.85.57.85-2.07.07-75.43,24.58-75.43,24.58-.72.25-4.66,2-4.66,2-1.62,1-26,74.57-26,74.57-.73,3,.6,2,.6,2,9.82-9.07,21.33-24.82,21.33-24.82.32-.47.81.3,1,.5-.85,5.43.09,15.2.09,15.2.06.47,1,4.59,1,4.59.36,1.19,10.95-20.23,10.95-20.23,5.11-7.51,7.15-5.83,7.15-5.83,2.55,1.31,3.75,13.54,3.75,13.54.2,1.54,16.16-26.2,16.16-26.2a32.09,32.09,0,0,1,3.13-4.67c.5-.74,9.5-4.11,12.16-5.19,4.33-1.5,32.41-13.71,32.41-13.71,6.84-2.3,13.7-7.51,14.85-8.44a26.45,26.45,0,0,1,8.14-10.29c4.28-2.42,4.48,2,4.48,2" transform="translate(-9.05 -5.65)"/><path class="cls-18" d="M259.1,461.74s-3.88-1.51-4.64,6.59c0,0-2.85,35.94-1.88,37.47,0,0,3.16,7.67,4.25,6.73,0,0,9.55-5.19,10.93-7.87,0,0,1.41-2.44,2.47.33,0,0,8.41,18.11,8.54,18.79,0,0,1,3.39,4.68-3.78,0,0,15.09-28.29,15.47-29.67,0,0,2.54-9.46,2.23-11.9,0,0-.36-2.63-4.26-.8l-9,3.55s-1.55.49-2.17-1.48c0,0-3.56-10.05-4.55-9.23,0,0-3.53,2.24-4.8,2.13,0,0-9.2-.47-9.82-1.78,0,0-2.51-7.85-3.1-8.1Z" transform="translate(-9.05 -5.65)"/><path class="cls-18" d="M240,544.5c-1.22.35,2.91-42.73,2.91-42.73,1.18-3,8.72,11.87,9.18,13s4.77,4.06,5.65,3.92,10-7,10.26-7,2.93,9.34,3.35,10.31c3.91,8.91,10.63,9.72,10.63,9.72,1.82.5,5.82-6.57,5.82-6.57,4.27-7.45,10.87-22.34,10-12.49.05-.6-2.8,38.48-2.88,39.15s-7.64,6.7-8.05,7-10.35-5.61-11.35-6.25-1-.64-1.84-.18-8.14,8.85-8.82,8.79c-.26,0-3.12-.41-3.05-2.37,0,0,3.08-23.82.36-23.33C262.2,535.44,242.05,543.92,240,544.5Z" transform="translate(-9.05 -5.65)"/><path class="cls-18" d="M228.12,579.68c2.39-10.13,5.39-39,5.39-39,.48-2.29,1.08,4.12,1.85,5.84,0,0,3.06,4.76,6.62,2.42,5.93-3.89,16.83-7.4,17-7.34S258.26,554,257.6,561c0,0,.83,7.61,9.73,3l8.17-6,8.34,3.84s2.55,1.48,4.19.33,10.66-8.88,10.66-8.88,3.14-3,1.37,3.5c0,0-7.93,21.31-11.51,36.07-.37,1.51-5.58,9.89-5.58,9.89-1,3.17-20.55,13.11-20.55,13.11-2.11-.2-3.76-7.38-5.09-11.84s-3.73-.64-3.73-.64c-1.58,2.08-6.6,2.49-9.06,1.4S228.12,579.68,228.12,579.68Z" transform="translate(-9.05 -5.65)"/><path class="cls-18" d="M218.73,653.91c-.76,7.74-1.38,14-1.35,13.79-1.15,10.35,6.38-5.19,11.2-13,0,0,4.52-7.35,6.48-6.79,0,0,7.28,1,11.3,10.49.44,1,3.12,10.89,3.39,10.93s10.36-7,11.32-7.1,5.57,3.1,6,4.26,8.3,17,9.64,13.86c0,0,.78-8,1.64-17.66.26-3,2-8.14,2.22-11.28.14-1.64.56-6.93.8-9.87,1.75-6.65,10.52-41.8,7.26-38.11-3.63,4.12-23.45,16.17-27.91,16s-7.39-11.66-9.92-9.13-8.55,2.72-11,1.86-17.81-30-18.28-28.17-3.67,32.2-3.67,32.2l-1.18,12.5C216.15,634.88,219.47,646.41,218.73,653.91Z" transform="translate(-9.05 -5.65)"/><path class="cls-18" d="M282.66,685.16s4.71-7.49,2.1,5.51c-.57,2.85-9.22,35.26-9.75,38.62-2.44,7.78-5.21,21-5.21,21-2,10.82-5.36,6.74-5.36,6.74l-3.32-6c-1.11-2.09-7.89-8.28-7.89-8.28-3.73-2.56-12.06,4-12.06,4a31.07,31.07,0,0,1-6,2.29c-1.2.85-6.72-9.07-6.72-9.07a2.59,2.59,0,0,0-2.94-1.42l-11.24,3.85c-4.85,2-5.57-.65-5.57-.65-.21-.84.36-7.84.91-13,.26-3.62-2-39.8-2-39.8-.15-3,.62-8,1.64-12.38s2.13.2,2.13.2c2.61,7.48,5.19,2.74,5.19,2.74,1.27-2,7.75-10.63,7.75-10.63s7.34-11.39,9.7-11.75c0,0,6.35-1.3,10.85,17.13l1.24,3.59s1.15,2.95,6.68-.61c0,0,8.32-5.8,9.45-5.31,0,0,3,1.45,3.51,2.61,0,0,8.73,15,10,15.12,0,0,5,2.58,4.94.23A12.38,12.38,0,0,1,282.66,685.16Z" transform="translate(-9.05 -5.65)"/><path class="cls-18" d="M274.45,762c-2.14,5.44-12.53,33.5-13,35.09-.59,1.81-8.19,5.34-9.37,5.36s-7.34-5.24-8.74-7.78c-1.25-2.26-3.37-.45-3.37-.45l-7.67,5.61c-2.84,1.26-5.07-2-5.07-2s-17.63-20.4-18.6-21.41c-1.41-1.48-9.22-31.92-9.24-33.11s1.15-2.73,1.85-2.33c1.09.63,2.53,3.51,2.53,3.51.66,1.11,6.29,2.4,8,1.94s13.36-4.63,13.36-4.63c1.24-.72,5.11,7.39,5.11,7.39.47.57,5.62,4.78,5.62,4.78.71.52,8.4-3.18,8.4-3.18,1.73-1,7.56-3.37,7.56-3.37,3.1-.53,13,15,13,15,1.55,2.22,4.28,2,5.26.74C270.05,763.25,277.74,753.73,274.45,762Z" transform="translate(-9.05 -5.65)"/><path class="cls-18" d="M323.14,841.4s-13.72-.67-13.38-1.77c0,0,.2-4.83-12-7,0,0-21.76-3.51-21.38-5.36,0,0,2.28-47-.38-42.94,0,0-18.7,20.71-19.26,21.74,0,0-6,5.68-16.06-7.24a86.12,86.12,0,0,0-7.91,6.45s-2.3,2.33-9.5-6c0,0-10-12.12-15.22-17.37l-2.84.25c.46,7.38,1.93,30.74,2.1,31.57,0,0,.35,2.23-.52,2.17s-18-11.9-18.39-9c0,0,.16,7.43-1,7.6,0,0-3.23-.49-7.95-1.18,8.29,7.67,16.86,15.09,25.71,22.39,8.85,1.83,18,3.6,27,5.21,47.54,8.45,94,11.9,93.89,11C326.11,851.87,328.71,841.85,323.14,841.4Z" transform="translate(-9.05 -5.65)"/><rect class="cls-19" x="209.22" y="281.02" width="570" height="100" rx="50"/><rect class="cls-19" x="209.22" y="444.02" width="570" height="100" rx="50"/><rect class="cls-19" x="209.22" y="607.02" width="570" height="100" rx="50"/></g></svg>