<svg width="45" height="45" viewBox="0 0 45 45" fill="none" xmlns="http://www.w3.org/2000/svg">
<g clip-path="url(#clip0_28_173)">
<path opacity="0.4" d="M22.4981 44.9961C34.9234 44.9961 44.9961 34.9234 44.9961 22.4981C44.9961 10.0727 34.9234 0 22.4981 0C10.0727 0 0 10.0727 0 22.4981C0 34.9234 10.0727 44.9961 22.4981 44.9961Z" fill="white"/>
<path fill-rule="evenodd" clip-rule="evenodd" d="M30.9461 6.21968C31.2798 5.77961 31.9071 5.69338 32.3471 6.02708L35.2157 8.20226C35.6558 8.53596 35.742 9.16323 35.4083 9.6033L33.2612 12.4348C33.381 12.986 33.2682 13.5843 32.9006 14.069L18.5802 32.9543C18.4302 33.152 18.2507 33.314 18.0524 33.4388C17.8703 33.5535 17.7082 33.7042 17.5482 33.853C17.493 33.9044 17.438 33.9556 17.3825 34.005C17.3423 34.0407 17.2985 34.0739 17.2511 34.104L11.9292 37.484C11.1471 37.9808 10.1683 37.2386 10.4356 36.3514L12.2542 30.3148C12.2704 30.2611 12.2905 30.21 12.314 30.1617C12.3466 30.095 12.381 30.0282 12.4155 29.9612C12.5157 29.7669 12.617 29.5702 12.6783 29.3639C12.7449 29.1392 12.8525 28.9226 13.0024 28.7248L27.3229 9.83952C27.6904 9.35489 28.2359 9.08483 28.7989 9.05138L30.9461 6.21968ZM16.2992 29.3422C16.1324 29.5623 16.1755 29.8759 16.3955 30.0427C16.6156 30.2096 16.9292 30.1665 17.096 29.9464L29.6038 13.4516C29.7707 13.2316 29.7276 12.918 29.5075 12.7511C29.2875 12.5843 28.9739 12.6274 28.807 12.8474L16.2992 29.3422Z" fill="white"/>
</g>
<defs>
<clipPath id="clip0_28_173">
<rect width="45" height="45" fill="white"/>
</clipPath>
</defs>
</svg>
