<svg width="51" height="51" viewBox="0 0 51 51" fill="none" xmlns="http://www.w3.org/2000/svg">
<circle cx="25.9456" cy="25.4514" r="25" fill="white" fill-opacity="0.4"/>
<path fill-rule="evenodd" clip-rule="evenodd" d="M11.8985 16.7601C11.7737 16.957 11.6524 17.1574 11.5348 17.3611C8.09334 23.3218 8.74034 30.5211 12.6057 35.7117L13.9581 33.9313C14.4237 33.3183 15.3783 33.4393 15.6764 34.1491L18.5424 40.9741C18.8405 41.6839 18.2584 42.4501 17.4947 42.3534L10.151 41.4229C9.38734 41.3262 9.01478 40.439 9.48042 39.826L10.7283 38.1832C7.75768 34.5396 6.2013 29.9502 6.29608 25.2995C6.36158 22.0854 7.21571 18.842 8.93669 15.8611C10.656 12.8832 13.0349 10.5234 15.7823 8.85991C20.1348 6.22451 25.4122 5.33646 30.4572 6.50583C31.3988 6.72407 31.8048 7.79732 31.3216 8.63434C31.0076 9.17812 30.3996 9.46181 29.7835 9.41246C29.7459 9.40945 29.7083 9.4052 29.6707 9.39969C29.6483 9.3964 29.6259 9.39267 29.6035 9.38849C29.587 9.38541 29.5706 9.38209 29.5541 9.37852C22.8598 7.92531 15.7267 10.7202 11.8985 16.7601ZM23.0923 42.1875C23.1166 42.1898 23.1409 42.1927 23.1652 42.1961L23.1872 42.1993L23.2154 42.2039C29.4839 43.2661 36.0131 40.6661 39.7666 35.2177C40.0197 34.8503 40.2603 34.4699 40.4872 34.0768C40.8347 33.4749 41.1406 32.8602 41.4057 32.2362C42.0968 30.6094 42.5106 28.919 42.6628 27.2246C43.0216 23.2271 41.9238 19.2081 39.5781 15.9473L38.4467 17.4534C37.9843 18.0689 37.0291 17.953 36.7272 17.2449L33.8248 10.4352C33.523 9.72701 34.101 8.95767 34.8652 9.05036L42.2137 9.94165C42.9779 10.0343 43.3552 10.9195 42.8928 11.535L41.4526 13.4522C44.754 17.6105 46.2418 22.9578 45.5732 28.2152C45.3155 30.2418 44.7374 32.2553 43.8188 34.1825C43.5946 34.6528 43.3502 35.1179 43.0853 35.5768C42.6111 36.398 42.0869 37.1722 41.5187 37.8976C40.4705 39.2358 39.2726 40.4084 37.9633 41.4051C33.5648 44.7536 27.9079 46.1197 22.4433 45.1147C21.4631 44.9344 21.018 43.8305 21.5163 42.9673C21.8175 42.4457 22.3901 42.1605 22.983 42.1804C23.0193 42.1816 23.0558 42.1839 23.0923 42.1875Z" fill="white"/>
</svg>
